HIERARCHY
ROOT root
{
	OFFSET 0.000000 0.000000 0.000000
	CHANNELS 6 Xposition Yposition Zposition Zrotation Yrotation Xrotation
	JOINT lhip
	{
		OFFSET 0.058581 -0.082280 -0.017664
		CHANNELS 3 Zrotation Yrotation Xrotation
		JOINT lknee
		{
			OFFSET 0.043451 -0.386469 0.008037
			CHANNELS 3 Zrotation Yrotation Xrotation
			JOINT lankle
			{
				OFFSET -0.014790 -0.426874 -0.037428
				CHANNELS 3 Zrotation Yrotation Xrotation
				JOINT ltoe
				{
					OFFSET 0.041054 -0.060286 0.122042
					CHANNELS 3 Zrotation Yrotation Xrotation
					End Site
					{
						OFFSET 0.000000 0.000000 0.000000
					}
				}
			}
		}
	}
	JOINT rhip
	{
		OFFSET -0.060310 -0.090513 -0.013543
		CHANNELS 3 Zrotation Yrotation Xrotation
		JOINT rknee
		{
			OFFSET -0.043257 -0.383688 -0.004843
			CHANNELS 3 Zrotation Yrotation Xrotation
			JOINT rankle
			{
				OFFSET 0.019056 -0.420046 -0.034562
				CHANNELS 3 Zrotation Yrotation Xrotation
				JOINT rtoe
				{
					OFFSET -0.034840 -0.062106 0.130323
					CHANNELS 3 Zrotation Yrotation Xrotation
					End Site
					{
						OFFSET 0.000000 0.000000 0.000000
					}
				}
			}
		}
	}
	JOINT lowerback
	{
		OFFSET 0.004439 0.124404 -0.038385
		CHANNELS 3 Zrotation Yrotation Xrotation
		JOINT upperback
		{
			OFFSET 0.004488 0.137956 0.026820
			CHANNELS 3 Zrotation Yrotation Xrotation
			JOINT chest
			{
				OFFSET -0.002265 0.056032 0.002855
				CHANNELS 3 Zrotation Yrotation Xrotation
				JOINT lowerneck
				{
					OFFSET -0.013390 0.211636 -0.033468
					CHANNELS 3 Zrotation Yrotation Xrotation
					JOINT upperneck
					{
						OFFSET 0.010113 0.088937 0.050410
						CHANNELS 3 Zrotation Yrotation Xrotation
						End Site
						{
							OFFSET 0.000000 0.000000 0.000000
						}
					}
				}
				JOINT lclavicle
				{
					OFFSET 0.071702 0.114000 -0.018898
					CHANNELS 3 Zrotation Yrotation Xrotation
					JOINT lshoulder
					{
						OFFSET 0.122921 0.045205 -0.019046
						CHANNELS 3 Zrotation Yrotation Xrotation
						JOINT lelbow
						{
							OFFSET 0.255332 -0.015649 -0.022946
							CHANNELS 3 Zrotation Yrotation Xrotation
							JOINT lwrist
							{
								OFFSET 0.265709 0.012698 -0.007375
								CHANNELS 3 Zrotation Yrotation Xrotation
								End Site
								{
									OFFSET 0.000000 0.000000 0.000000
								}
							}
						}
					}
				}
				JOINT rclavicle
				{
					OFFSET -0.082954 0.112472 -0.023707
					CHANNELS 3 Zrotation Yrotation Xrotation
					JOINT rshoulder
					{
						OFFSET -0.113228 0.046853 -0.008472
						CHANNELS 3 Zrotation Yrotation Xrotation
						JOINT relbow
						{
							OFFSET -0.260127 -0.014369 -0.031269
							CHANNELS 3 Zrotation Yrotation Xrotation
							JOINT rwrist
							{
								OFFSET -0.269108 0.006794 -0.006027
								CHANNELS 3 Zrotation Yrotation Xrotation
								End Site
								{
									OFFSET 0.000000 0.000000 0.000000
								}
							}
						}
					}
				}
			}
		}
	}
}
MOTION
Frames: 16
Frame Time: 0.033333
0.003897 -0.148477 0.966185 -179.352529 -1.274457 90.811754 8.196883 2.320217 -10.938221 -7.053994 -4.758409 14.846297 0.287198 3.652856 -9.319818 0.000000 -0.000000 0.000000 -12.628128 -6.888431 -15.037173 0.430849 -2.857027 20.791554 5.979481 -3.469098 -6.551834 0.000000 -0.000000 0.000000 0.213231 3.365564 17.757161 1.848026 -3.590210 5.592021 1.786677 1.775020 -3.257319 -1.662170 7.827852 7.275281 4.634691 2.240490 20.555381 -23.520140 -28.697550 6.474233 -73.320443 -25.069389 25.852626 2.563610 -15.527674 3.570414 20.526201 10.634506 -29.153832 29.229892 27.330904 12.552191 65.165064 29.895213 16.028140 -12.549770 8.109501 -18.569987 4.173461 2.369954 -27.266248 
0.004134 -0.147461 0.966316 -179.179283 -1.337541 90.763363 8.111482 2.249678 -10.871047 -6.966313 -4.589171 14.842163 0.492617 3.446790 -9.354887 0.000000 -0.000000 0.000000 -12.704448 -6.975654 -14.941962 0.312693 -3.218281 20.928217 5.737319 -3.111457 -6.617912 0.000000 -0.000000 0.000000 0.258723 3.485527 17.858033 1.909271 -3.665898 5.443652 1.744187 1.734331 -3.225861 -1.441481 7.834776 7.285079 4.439341 1.970440 20.891158 -23.553037 -28.667525 6.767405 -73.151892 -25.216740 25.636465 2.168369 -15.691720 4.387916 19.173633 9.243259 -28.420586 29.207305 27.122175 12.576431 65.281696 30.006643 15.751058 -12.783188 7.911933 -18.473564 4.562276 3.605100 -28.379467 
0.004650 -0.146646 0.966381 -179.200760 -1.304946 90.814027 8.229707 2.255302 -10.895089 -7.037787 -4.527329 14.871857 0.425650 3.415864 -9.343816 0.000000 -0.000000 0.000000 -12.608522 -6.947645 -14.973914 0.257763 -3.240523 20.964537 5.677717 -3.114442 -6.666809 0.000000 -0.000000 0.000000 0.247339 3.448118 17.783444 1.935606 -3.650264 5.483679 1.746860 1.791001 -3.164983 -1.365879 7.887067 7.247535 4.410361 1.895826 20.976308 -23.514185 -28.578271 6.733046 -73.155272 -25.303112 25.611969 2.179535 -15.648046 4.356653 18.815219 8.926335 -28.371035 29.193750 27.041285 12.568981 65.258887 30.231440 15.704186 -12.694978 7.820916 -18.477001 4.839474 3.510971 -28.259952 
0.004882 -0.145756 0.966406 -179.236920 -1.299735 90.871675 8.225846 2.315093 -10.925903 -7.017673 -4.479291 14.950028 0.408672 3.384861 -9.375622 0.000000 -0.000000 0.000000 -12.611231 -6.948897 -15.035006 0.304913 -3.263401 21.032378 5.672062 -2.991960 -6.617082 0.000000 -0.000000 0.000000 0.270113 3.578001 17.702897 1.953994 -3.582293 5.452586 1.767114 1.744077 -3.161914 -1.370487 7.903052 7.520080 4.479146 1.994385 20.982830 -23.676615 -28.704596 6.854969 -73.104416 -25.404774 25.530808 2.217604 -15.458663 3.713071 19.123052 8.841734 -28.285953 29.165640 27.026851 12.501916 65.289073 30.196993 15.678284 -12.745686 7.781282 -18.709764 4.865872 3.407094 -27.893121 
0.004914 -0.145290 0.966562 -179.265160 -1.264903 90.909242 8.248612 2.314104 -10.923536 -6.973321 -4.415714 14.937562 0.419612 3.404252 -9.342725 0.000000 -0.000000 0.000000 -12.570628 -6.875068 -15.030600 0.288242 -3.321230 20.990756 5.630629 -3.053870 -6.607227 0.000000 -0.000000 0.000000 0.279808 3.632785 17.618484 1.987271 -3.512859 5.430489 1.806108 1.667855 -3.053589 -1.378391 7.834613 7.505739 4.483194 2.037774 21.046904 -23.763631 -28.805756 7.002434 -73.094651 -25.464020 25.447474 2.402600 -15.434677 3.476189 18.868214 8.746873 -27.969965 29.173866 27.144841 12.573394 65.173838 30.214465 15.549932 -12.862646 7.705301 -18.867530 5.327883 3.580874 -27.950131 
0.004883 -0.144848 0.966590 -179.217021 -1.252983 90.839312 8.259043 2.295071 -10.822331 -6.950953 -4.374783 14.908476 0.346475 3.357300 -9.330680 0.000000 -0.000000 0.000000 -12.581187 -6.860300 -14.914908 0.285753 -3.379853 20.963219 5.623191 -2.991850 -6.650212 0.000000 -0.000000 0.000000 0.341123 3.472881 17.834779 1.932395 -3.608036 5.497967 1.771323 1.740429 -3.194282 -1.308956 7.886677 7.232831 4.387086 1.916608 21.354671 -23.683018 -28.645647 7.019041 -73.203184 -25.485417 25.378133 2.603678 -15.537497 3.708253 18.478234 8.542326 -28.580534 29.135168 27.196672 12.475240 65.343730 30.121785 15.689014 -12.983109 7.820059 -18.751267 5.273673 3.713815 -28.621198 
0.004775 -0.144512 0.966542 -179.205745 -1.305637 90.828444 8.213304 2.279873 -10.750379 -6.968559 -4.370923 14.825191 0.308403 3.363477 -9.307073 0.000000 -0.000000 0.000000 -12.657981 -6.857313 -14.857390 0.266990 -3.426583 20.940481 5.646310 -3.014139 -6.695806 0.000000 -0.000000 0.000000 0.322046 3.465245 17.846294 1.924142 -3.618691 5.507098 1.722569 1.754751 -3.182081 -1.306475 7.842570 7.263772 4.424827 1.797889 21.317175 -23.595709 -28.644425 6.861225 -73.309614 -25.469905 25.474786 2.518732 -15.408390 3.548363 18.802891 8.523068 -28.580380 29.085930 27.047420 12.410307 65.467182 30.177272 15.715243 -13.034438 7.888088 -18.804708 5.035364 3.641674 -28.752447 
0.004801 -0.144418 0.966701 -179.203584 -1.294487 90.853471 8.241651 2.287827 -10.748846 -7.008711 -4.389310 14.813799 0.275494 3.371055 -9.316669 0.000000 -0.000000 0.000000 -12.653240 -6.854466 -14.831074 0.290254 -3.425839 20.861782 5.673107 -2.975723 -6.620445 0.000000 -0.000000 0.000000 0.307312 3.439764 17.888036 1.922719 -3.648624 5.470582 1.741166 1.770785 -3.198407 -1.307793 7.926258 7.326561 4.454521 1.877403 21.343209 -23.602967 -28.651770 6.888768 -73.361871 -25.399756 25.502520 2.593231 -15.488096 3.445857 19.013871 8.567358 -28.527696 29.083230 26.967286 12.364091 65.468221 30.083044 15.748683 -13.024603 8.090896 -18.800348 4.835271 3.562203 -28.864742 
0.004616 -0.144453 0.966730 -179.174446 -1.314994 90.874478 8.198019 2.321973 -10.768717 -7.016114 -4.456921 14.806236 0.309948 3.323109 -9.288749 0.000000 -0.000000 0.000000 -12.692943 -6.910472 -14.853992 0.326038 -3.425504 20.868740 5.646876 -2.958147 -6.648489 0.000000 -0.000000 0.000000 0.339936 3.392996 17.859521 1.890103 -3.688647 5.459616 1.692520 1.770058 -3.189374 -1.338912 7.901349 7.409891 4.462262 1.935361 21.378100 -23.654938 -28.652687 6.858417 -73.367466 -25.392645 25.480642 2.541682 -15.377394 3.402316 19.315772 8.715808 -28.099648 29.046751 26.915347 12.307521 65.533485 30.094325 15.705747 -13.041995 8.047994 -18.850266 4.998967 3.564862 -28.677489 
0.004502 -0.144569 0.966729 -179.243845 -1.305202 90.873276 8.219976 2.394338 -10.706852 -7.071665 -4.550312 14.732308 0.285984 3.365628 -9.383298 0.000000 -0.000000 0.000000 -12.663092 -6.882967 -14.883519 0.287795 -3.373762 20.869047 5.703529 -3.027382 -6.663111 0.000000 -0.000000 0.000000 0.275641 3.442328 17.890523 1.895703 -3.698514 5.478130 1.801605 1.709158 -3.191097 -1.433940 7.848146 7.328392 4.463376 2.016858 21.433576 -23.671119 -28.859123 6.935103 -73.474971 -25.322321 25.415782 2.691252 -15.341598 3.152270 20.371327 9.148646 -27.199044 29.050161 27.119427 12.374408 65.449031 29.994289 15.595739 -13.012729 8.271319 -19.152333 4.641895 2.529489 -28.112242 
0.004338 -0.144653 0.966617 -179.255035 -1.300146 90.819671 8.244248 2.437557 -10.684855 -7.089358 -4.496129 14.779418 0.301182 3.241980 -9.408794 0.000000 -0.000000 0.000000 -12.670906 -6.916167 -14.811102 0.271376 -3.420091 20.801164 5.675598 -2.905948 -6.590072 0.000000 -0.000000 0.000000 0.284610 3.379848 17.942131 1.900881 -3.780356 5.612675 1.758171 1.709770 -3.323064 -1.417215 7.927733 7.323496 4.374011 1.988265 21.603141 -23.756483 -28.766197 6.992666 -73.424361 -25.326410 25.387457 2.697834 -15.232537 3.549004 19.936992 8.604055 -27.331182 29.047809 27.065970 12.340571 65.620162 30.011106 15.534179 -13.248991 8.035069 -19.421723 5.186051 3.415247 -28.747530 
0.004156 -0.144895 0.966540 -179.257279 -1.274346 90.876853 8.257152 2.395610 -10.741803 -7.061313 -4.477315 14.740456 0.337808 3.249564 -9.406310 0.000000 -0.000000 0.000000 -12.636677 -6.859800 -14.875572 0.245188 -3.411887 20.781954 5.666062 -2.918237 -6.597103 0.000000 -0.000000 0.000000 0.221757 3.371040 17.829030 1.982621 -3.790815 5.613220 1.813328 1.699699 -3.260566 -1.474267 7.962209 7.391946 4.299019 1.966818 21.592239 -23.825049 -28.771399 7.023644 -73.414001 -25.342559 25.421116 2.764913 -15.155033 3.683893 19.482016 8.406849 -27.237538 29.125545 27.059306 12.403625 65.517824 29.993781 15.468533 -13.310494 8.077322 -19.419415 5.761234 3.647459 -29.056986 
0.004072 -0.145124 0.966397 -179.299944 -1.276151 90.848789 8.258151 2.437522 -10.720056 -7.066175 -4.439821 14.754891 0.353945 3.222619 -9.457665 0.000000 -0.000000 0.000000 -12.652549 -6.876976 -14.895351 0.277443 -3.343542 20.814050 5.707453 -2.941571 -6.618770 0.000000 -0.000000 0.000000 0.149090 3.400676 17.710977 2.029778 -3.821940 5.840393 1.807121 1.735949 -3.249859 -1.395190 8.070916 7.331524 4.232450 1.916048 21.614224 -23.816041 -28.816890 6.985039 -73.330592 -25.439931 25.408611 2.743222 -15.083495 3.871022 19.252247 8.390764 -26.745425 29.258501 27.015600 12.420373 65.382010 30.102448 15.297130 -13.373248 8.020667 -19.700272 5.969490 3.526925 -29.088090 
0.003793 -0.145374 0.966290 -179.272631 -1.283112 90.889115 8.233560 2.424388 -10.805363 -7.078860 -4.457724 14.789988 0.363378 3.217445 -9.476623 0.000000 -0.000000 0.000000 -12.686908 -6.920385 -14.948473 0.286487 -3.380085 20.824182 5.724898 -2.936285 -6.650893 0.000000 -0.000000 0.000000 0.158051 3.437597 17.644894 2.055095 -3.831043 5.818831 1.798752 1.725313 -3.216682 -1.377353 8.050448 7.363191 4.191905 1.847612 21.683230 -23.755628 -28.844146 7.021105 -73.343251 -25.511400 25.496995 2.764988 -15.097476 4.040778 19.037997 8.298848 -26.776332 29.350139 26.947177 12.452950 65.271708 30.105946 15.175315 -13.352871 8.039825 -19.815246 5.964656 3.610055 -29.455113 
0.003508 -0.145618 0.966179 -179.217528 -1.256263 90.892991 8.224572 2.430292 -10.851684 -7.049318 -4.499341 14.824195 0.394877 3.176268 -9.501701 0.000000 -0.000000 0.000000 -12.715251 -6.977809 -14.962722 0.357716 -3.415898 20.850679 5.735698 -2.840827 -6.619514 0.000000 -0.000000 0.000000 0.214617 3.480536 17.652717 2.070514 -3.841583 5.768067 1.810497 1.705360 -3.255322 -1.432265 8.039516 7.487650 4.264781 1.873391 21.708936 -23.687573 -28.957539 7.076842 -73.457716 -25.528161 25.519945 2.912120 -15.037191 4.176752 18.944809 8.296532 -26.707998 29.302489 27.021045 12.611417 65.275017 30.088659 15.020706 -13.434238 8.086451 -19.808683 6.173611 3.847427 -29.733411 
0.003462 -0.145865 0.966094 -179.170537 -1.254810 90.855059 8.224478 2.496104 -10.862983 -7.068606 -4.543443 14.883566 0.399389 3.119657 -9.515406 0.000000 -0.000000 0.000000 -12.716942 -6.987166 -14.938294 0.339608 -3.451658 20.873534 5.763927 -2.842033 -6.641207 0.000000 -0.000000 0.000000 0.183813 3.549533 17.643948 2.135527 -3.832231 5.789849 1.845707 1.716591 -3.208782 -1.445724 8.085827 7.452033 4.203718 1.733077 21.722528 -23.587089 -29.059975 7.055226 -73.484658 -25.583595 25.674884 2.889396 -15.157454 4.662287 19.334515 8.254689 -26.308239 29.302538 27.008474 12.631741 65.256182 30.140085 14.953522 -13.505590 8.083890 -19.720856 6.184783 3.886047 -29.925772 
